<svg xmlns="http://www.w3.org/2000/svg" viewBox="0 0 64 64">
  <defs>
    <linearGradient id="bg" x1="0%" y1="0%" x2="100%" y2="100%">
      <stop offset="0%" stop-color="#1b365d" />
      <stop offset="100%" stop-color="#10223b" />
    </linearGradient>
  </defs>
  <rect width="64" height="64" rx="12" fill="url(#bg)" />
  <rect x="30" y="16" width="4" height="26" rx="2" fill="#f5d77b" />
  <rect x="18" y="16" width="28" height="4" rx="2" fill="#f5d77b" />
  <path d="M22 44h20a2 2 0 0 1 0 4H22a2 2 0 0 1 0-4z" fill="#f5d77b" />
  <path d="M18 24L10 38a8 8 0 0 0 16 0z" fill="#f5f3e6" />
  <path d="M46 24l8 14a8 8 0 0 1-16 0z" fill="#f5f3e6" />
  <circle cx="18" cy="38" r="2" fill="#c99b2d" />
  <circle cx="46" cy="38" r="2" fill="#c99b2d" />
</svg>
